<svg width="1055" height="214" viewBox="0 0 1055 214" fill="none" xmlns="http://www.w3.org/2000/svg">
<path d="M116.5 0L233 214H0L116.5 0Z" fill="#FFBE19"/>
<path d="M213.649 202.945H19.7458L116.5 148.063L213.649 202.945Z" fill="black"/>
<path d="M116.5 0V148.063L0 214L116.5 0Z" fill="black" fill-opacity="0.12"/>
<path d="M268 63L311.291 63.1241C335.232 63.1241 354.706 82.485 354.706 106.438C354.706 117.111 350.861 126.916 344.411 134.486C343.667 135.355 342.798 136.224 341.93 137.093C334.115 145.036 323.323 149.876 311.415 149.876H268V63ZM283.381 78.6377V134.486H311.291C326.673 134.486 339.201 121.951 339.201 106.562C339.201 91.1726 326.673 78.6377 311.291 78.6377H283.381ZM390.655 78.5135C386.314 78.5135 382.716 82.1127 382.716 86.4565V94.5235H438.536V110.037H382.716V126.419C382.716 130.763 386.314 134.362 390.655 134.362H454.041V149.876H390.655C377.755 149.876 367.335 139.327 367.335 126.419V86.4565C367.335 73.5492 377.755 63 390.655 63H454.041V78.5135H390.655ZM492.47 134.362L537.994 134.486V150H493.958C489.617 150 485.523 149.007 481.802 147.146C476.344 144.415 471.879 139.947 469.274 134.486C467.413 130.763 466.421 126.668 466.421 122.324V63.1241H481.926V123.813C482.67 129.274 487.012 133.618 492.47 134.362ZM527.231 63.1241H613.938V78.6377H578.337V150H562.832V78.6377H527.231V63.1241ZM677.642 134.362L685.581 149.876H668.215L660.276 134.362L641.297 97.1298L622.319 134.362L614.38 149.876H597.014L604.953 134.362L641.297 63L677.642 134.362ZM767.493 99.1156C774.936 104.08 779.897 112.519 779.897 122.2C779.897 137.465 767.493 149.876 752.236 149.876H693.067V63H747.77C760.671 63 771.214 73.5492 771.214 86.4565C771.214 91.1726 769.85 95.5164 767.493 99.1156ZM708.572 78.5135V94.3994H747.894C752.236 94.3994 755.833 90.8003 755.833 86.4565C755.833 82.1127 752.236 78.5135 747.894 78.5135H708.572ZM752.236 134.362V134.238C758.934 134.238 764.392 128.777 764.392 122.076C764.392 115.374 758.934 109.913 752.236 109.913H708.572V134.362H752.236ZM865.043 134.362L872.981 149.876H855.615L847.676 134.362L828.694 97.1298L809.719 134.362L801.78 149.876H784.412L792.35 134.362L828.694 63L865.043 134.362ZM955.799 86.9529L940.29 87.077V86.5806C940.29 82.2368 936.697 78.6377 932.351 78.6377H897.123C892.785 78.6377 889.184 82.2368 889.184 86.5806V87.077C889.184 91.4208 892.785 95.02 897.123 95.02H928.382C936.449 95.02 943.643 98.495 948.605 103.956C948.973 104.328 949.221 104.7 949.597 105.073C953.438 109.789 955.799 115.87 955.799 122.448C955.799 137.589 943.515 149.876 928.382 149.876H901.22C886.087 149.876 873.803 137.589 873.803 122.448H889.312C889.312 129.026 894.642 134.362 901.22 134.362H928.382C934.96 134.362 940.418 129.026 940.418 122.448C940.418 115.87 934.96 110.534 928.382 110.534H897.123C890.801 110.534 885.095 108.051 880.877 103.956C879.757 102.839 878.764 101.598 877.9 100.233C875.291 96.5093 873.803 91.9173 873.803 86.9529V86.4565C873.803 73.5492 884.222 63 897.123 63H932.351C945.252 63 955.799 73.5492 955.799 86.4565V86.9529ZM991.61 78.5135C987.272 78.5135 983.671 82.1127 983.671 86.4565V94.5235H1039.49V110.037H983.671V126.419C983.671 130.763 987.272 134.362 991.61 134.362H1055V149.876H991.61C978.709 149.876 968.289 139.327 968.289 126.419V86.4565C968.289 73.5492 978.709 63 991.61 63H1055V78.5135H991.61Z" fill="black"/>
</svg>
