<svg width="909" height="143" viewBox="0 0 909 143" fill="none" xmlns="http://www.w3.org/2000/svg">
<path d="M246.1 78.78L260.1 106.78L269.06 124.28H249.46L231.12 88.44L230.7 87.6C227.62 82.56 222.16 79.2 215.86 79.2H198.36V124.28H180.86V26.28H242.74C250.02 26.28 256.6 29.22 261.36 33.98C266.12 38.74 269.06 45.32 269.06 52.6C269.06 63.24 262.76 72.48 253.66 76.68C251.28 77.8 248.76 78.5 246.1 78.78ZM198.36 61.84L242.74 61.7C244 61.7 245.26 61.42 246.38 60.86C249.6 59.46 251.7 56.24 251.7 52.74C251.7 49.52 250.02 47.28 249.04 46.3C247.92 45.18 245.82 43.78 242.74 43.78H198.36V61.84Z" fill="white"/>
<path d="M309.726 43.5C304.826 43.5 300.766 47.56 300.766 52.46V61.56H363.766V79.06H300.766V97.54C300.766 102.44 304.826 106.5 309.726 106.5H381.266V124H309.726C295.166 124 283.406 112.1 283.406 97.54V52.46C283.406 37.9 295.166 26 309.726 26H381.266V43.5H309.726Z" fill="white"/>
<path d="M421.698 26L493.378 25.86V43.36H421.838C416.938 43.36 412.878 47.42 412.878 52.32V61.42H475.878V78.92H412.738V123.86H395.378V52.46C395.378 37.9 407.138 26 421.698 26Z" fill="white"/>
<path d="M572.311 78.78L586.311 106.78L595.271 124.28H575.671L557.331 88.44L556.911 87.6C553.831 82.56 548.371 79.2 542.071 79.2H524.571V124.28H507.071V26.28H568.951C576.231 26.28 582.811 29.22 587.571 33.98C592.331 38.74 595.271 45.32 595.271 52.6C595.271 63.24 588.971 72.48 579.871 76.68C577.491 77.8 574.971 78.5 572.311 78.78ZM524.571 61.84L568.951 61.7C570.211 61.7 571.471 61.42 572.591 60.86C575.811 59.46 577.911 56.24 577.911 52.74C577.911 49.52 576.231 47.28 575.251 46.3C574.131 45.18 572.031 43.78 568.951 43.78H524.571V61.84Z" fill="white"/>
<path d="M694.877 106.5L703.837 124H684.237L675.277 106.5L653.857 64.5L632.437 106.5L623.477 124H603.877L612.837 106.5L653.857 26L694.877 106.5Z" fill="white"/>
<path d="M747.584 43.5C730.224 43.5 716.084 57.64 716.084 75C716.084 92.36 730.224 106.5 747.584 106.5H796.584V124H747.584C720.564 124 698.584 102.02 698.584 75C698.584 47.98 720.564 26 747.584 26H796.584V43.5H747.584Z" fill="white"/>
<path d="M810.59 26.14H908.45V43.64H868.27V124.14H850.77V43.64H810.59V26.14Z" fill="white"/>
<path d="M78 0L0 143H156L78 0Z" fill="#FFBE19"/>
<path d="M12.9559 135.613H142.78L78 98.9391L12.9559 135.613Z" fill="black"/>
<path d="M78 0V98.9391L156 143L78 0Z" fill="black" fill-opacity="0.12"/>
</svg>
